# xmcd CD database file
#
# Track frame offsets:
#	150
#	35587
#	82812
#	121702
#	142155
#	178970
#	215027
#
# Disc length: 3341 seconds
#
# Revision: 1
# Processed by: cddbd v1.4PL0 Copyright (c) Steve Scherf et al.
# Submitted via: CDex 1.50beta10
#
DISCID=630d0b07
DTITLE=David Murray Quartet - Long Goodbye
DYEAR=1997
DGENRE=Jazz
TTITLE0=Gratitude
TTITLE1=Resting on the road
TTITLE2=Out of storm
TTITLE3=El Matador
TTITLE4=Easy Alice
TTITLE5=Long Goodbye
TTITLE6=Common Ground
EXTD=YEAR: 1997
EXTT0=
EXTT1=
EXTT2=
EXTT3=
EXTT4=
EXTT5=
EXTT6=
PLAYORDER=
